<?xml version="1.0" encoding="UTF-8" standalone="no"?>
<!-- Created with Inkscape (http://www.inkscape.org/) -->

<svg
   width="48"
   height="48"
   viewBox="0 0 12.7 12.7"
   version="1.1"
   id="svg5"
   sodipodi:docname="uncovericon.svg"
   inkscape:version="1.2.2 (732a01da63, 2022-12-09)"
   xmlns:inkscape="http://www.inkscape.org/namespaces/inkscape"
   xmlns:sodipodi="http://sodipodi.sourceforge.net/DTD/sodipodi-0.dtd"
   xmlns="http://www.w3.org/2000/svg"
   xmlns:svg="http://www.w3.org/2000/svg">
  <sodipodi:namedview
     id="namedview7"
     pagecolor="#505050"
     bordercolor="#eeeeee"
     borderopacity="1"
     inkscape:showpageshadow="0"
     inkscape:pageopacity="0"
     inkscape:pagecheckerboard="0"
     inkscape:deskcolor="#505050"
     inkscape:document-units="mm"
     showgrid="false"
     inkscape:zoom="9.4852829"
     inkscape:cx="21.875995"
     inkscape:cy="24.089951"
     inkscape:window-width="1368"
     inkscape:window-height="842"
     inkscape:window-x="-6"
     inkscape:window-y="-6"
     inkscape:window-maximized="1"
     inkscape:current-layer="layer1" />
  <defs
     id="defs2" />
  <g
     inkscape:label="Layer 1"
     inkscape:groupmode="layer"
     id="layer1">
    <path
       style="fill:#cbd5e1;fill-opacity:1;stroke:none;stroke-width:1.024;stroke-dasharray:none"
       d="m 9.1658488,0.95549723 c 0.048138,0.13038657 0.090079,0.26322287 0.1245402,0.39790857 0.023375,0.091356 0.041065,0.1838934 0.061495,0.2759521 0.115687,0.6809694 0.1293373,1.3744216 0.1198893,2.06344 C 9.4563579,4.2188728 9.4111488,4.7507642 9.2500814,5.2549764 9.217574,5.3567388 9.1767592,5.4554246 9.1400106,5.5557332 8.9351002,6.0560344 8.644482,6.522879 8.2811483,6.9241252 8.1986034,7.0152833 8.1092201,7.1002243 8.0232829,7.1881917 7.5428172,7.6552185 6.980621,8.0272455 6.4001261,8.3576294 6.2789844,8.4265762 6.1555083,8.4917524 6.0332235,8.5586507 5.550512,8.8099574 5.057535,9.0441283 4.5464925,9.2325114 4.2028937,9.3591707 4.0981947,9.3849423 3.7486084,9.4903768 3.2325056,9.6265855 2.703357,9.7433606 2.1678263,9.7642619 1.8442821,9.7768889 1.7039335,9.7571111 1.3854451,9.7327393 1.3557968,9.7278183 1.325822,9.723697 1.2960449,9.7193034 A 6.1433797,6.1433797 0 0 0 6.5241496,12.644706 6.1433797,6.1433797 0 0 0 12.667444,6.5014119 6.1433797,6.1433797 0 0 0 9.1658488,0.95549723 Z"
       id="path18068" />
  </g>
</svg>
