<?xml version="1.0" encoding="UTF-8" standalone="no"?>
<!-- Created with Inkscape (http://www.inkscape.org/) -->

<svg
   width="48"
   height="48"
   viewBox="0 0 12.7 12.7"
   version="1.1"
   id="svg5"
   sodipodi:docname="uncovericon.svg"
   inkscape:version="1.2.2 (732a01da63, 2022-12-09)"
   xmlns:inkscape="http://www.inkscape.org/namespaces/inkscape"
   xmlns:sodipodi="http://sodipodi.sourceforge.net/DTD/sodipodi-0.dtd"
   xmlns="http://www.w3.org/2000/svg"
   xmlns:svg="http://www.w3.org/2000/svg">
  <sodipodi:namedview
     id="namedview7"
     pagecolor="#505050"
     bordercolor="#eeeeee"
     borderopacity="1"
     inkscape:showpageshadow="0"
     inkscape:pageopacity="0"
     inkscape:pagecheckerboard="0"
     inkscape:deskcolor="#505050"
     inkscape:document-units="mm"
     showgrid="false"
     inkscape:zoom="9.4852829"
     inkscape:cx="22.192274"
     inkscape:cy="24.300804"
     inkscape:window-width="1368"
     inkscape:window-height="842"
     inkscape:window-x="-6"
     inkscape:window-y="-6"
     inkscape:window-maximized="1"
     inkscape:current-layer="layer1" />
  <defs
     id="defs2" />
  <g
     inkscape:label="Layer 1"
     inkscape:groupmode="layer"
     id="layer1">
    <path
       style="fill:#cbd5e1;fill-opacity:1;stroke:none;stroke-width:1.31246;stroke-dasharray:none"
       d="M 12.391807,-0.00611822 C 12.246247,0.14285536 10.806405,1.5214072 10.660931,1.6704389 10.317068,2.0217643 9.9747288,2.3741154 9.6295969,2.7244053 8.7965561,3.5698616 8.5763672,3.7827488 7.7588363,4.6024403 7.3588089,5.003525 6.9636526,5.408629 6.5622324,5.808569 6.4794451,5.8910494 6.3944896,5.9719004 6.3103187,6.0532549 5.834832,6.5406116 5.3605919,7.0287526 4.8877578,7.518186 4.5893789,7.8270407 4.2946425,8.1385092 3.9934711,8.4451347 3.3307182,9.1198896 2.9404712,9.493763 2.2680875,10.149966 c -0.2612211,0.250846 -0.5212006,0.502943 -0.7834861,0.752869 -0.5438841,0.518244 -0.87436185,0.8282 -1.42704018,1.331231 -0.0020253,0.0018 -0.0039365,0.0037 -0.0059609,0.0057 2.37246538,0.588202 7.05206638,0.518137 8.25960618,0.124136 2.3946655,-1.010078 3.6936695,-1.629549 4.4178565,-5.5864719 0.145105,-1.8020571 -0.06569,-4.4420665 -0.33725,-6.78361006 z"
       id="path1838"
       sodipodi:nodetypes="cccsscsscccccccc" />
    <path
       style="fill:#cbd5e1;fill-opacity:1;stroke:none;stroke-width:1.024;stroke-dasharray:none"
       d="m 9.6371379,1.9502686 c -0.010148,-0.00122 0.0031,0.00433 0.024288,0.00568 -0.00395,-0.00102 -0.00791,-0.00219 -0.011886,-0.0031 -0.00594,-0.00137 -0.0098,-0.00227 -0.012402,-0.00258 z"
       id="path1985" />
  </g>
</svg>
